<svg width="32" height="25" viewBox="0 0 32 25" fill="none" xmlns="http://www.w3.org/2000/svg">
<path id="The insights from au" d="M7.87055 24.5C5.45415 24.5 3.52104 23.7593 2.0712 22.2778C0.690399 20.737 0 18.7519 0 16.3222C0 13.0037 1.0356 10.0111 3.1068 7.34444C5.24703 4.61852 8.49191 2.33703 12.8414 0.5L13.9806 1.92222C11.9094 2.98889 10.0108 4.5 8.28479 6.45555C6.62783 8.35185 5.79935 10.2778 5.79935 12.2333C5.79935 12.7667 5.97195 13.2111 6.31715 13.5667C6.66235 13.863 7.18015 14.0111 7.87055 14.0111C9.59655 14.0111 11.0464 14.5444 12.2201 15.6111C13.4628 16.6185 14.0841 17.863 14.0841 19.3444C14.0841 20.8259 13.4628 22.0704 12.2201 23.0778C11.0464 24.0259 9.59655 24.5 7.87055 24.5ZM25.7864 24.5C23.37 24.5 21.4369 23.7593 19.9871 22.2778C18.6063 20.737 17.9159 18.7519 17.9159 16.3222C17.9159 13.0037 18.9515 10.0111 21.0227 7.34444C23.1629 4.61852 26.4078 2.33703 30.7573 0.5L31.8964 1.92222C29.8252 2.98889 27.9266 4.5 26.2006 6.45555C24.5437 8.35185 23.7152 10.2778 23.7152 12.2333C23.7152 12.7667 23.8878 13.2111 24.233 13.5667C24.5782 13.863 25.096 14.0111 25.7864 14.0111C27.5124 14.0111 28.9622 14.5444 30.1359 15.6111C31.3786 16.6185 32 17.863 32 19.3444C32 20.8259 31.3786 22.0704 30.1359 23.0778C28.9622 24.0259 27.5124 24.5 25.7864 24.5Z" fill="#31BC6D"/>
</svg>
